<?xml version="1.0" encoding="utf-8"?>
<svg xmlns="http://www.w3.org/2000/svg"
     xmlns:xlink="http://www.w3.org/1999/xlink"
     viewBox="0 0 1200 1200">
    <title>Celerity</title>

    <defs>
        <linearGradient id="letter">
            <stop offset="0"
                  stop-color="#7f2aff" />
            <stop offset="1"
                  stop-color="#c9a5ff"
                  stop-opacity="0" />
        </linearGradient>

        <linearGradient id="arrows"
                        gradientUnits="userSpaceOnUse">
            <stop offset="0"
                  stop-color="#0066ff" />
            <stop offset="1"
                  stop-color="#9dc4ff"
                  stop-opacity="0" />
        </linearGradient>
    </defs>

    <g fill="url(#letter)">
        <path d="m996.79 202.07 189.52-190.07h-1172.6v1176h1172.6l-189.52-190.07h-793.58v-795.86z" />
        <path d="m39.433 600v562.63h1085.1c-46.085-46.563-92.17-93.127-138.25-139.69h-783.51c-8.1813-8.4639-18.362-15.21-25-25v-795.88c8.4639-8.1813 15.211-18.362 25-25h783.48c46.089-46.564 92.178-93.128 138.27-139.69h-1085.1v562.63z" />
    </g>

    <g fill="url(#arrows)">
        <g transform="translate(180 150) scale(.75)">
            <path d="m72 1094.4v-256.98l243.46-237.52-237.42-237.45-3.2266-257.21 493.18 494.71zm12-251.92v223.02l467.02-465.56-463.82-465.29 2.7734 222.78 242.58 242.57z" />
            <path d="m81 120 475.5 480-484.5 480v-240l249-240-238.5-240z" />

            <path d="m372 1094.4v-256.98l243.46-237.52-237.42-237.45-3.2266-257.21 493.18 494.71zm12-251.92v223.02l467.02-465.56-463.82-465.29 2.7734 222.78 242.58 242.57z" />
            <path d="m381 120 475.5 480-484.5 480v-240l249-240-238.5-240z" />

            <path d="m672 1094.4v-256.98l243.46-237.52-237.42-237.45-3.2266-257.21 493.18 494.71zm12-251.92v223.02l467.02-465.56-463.82-465.29 2.7734 222.78 242.58 242.57z" />
            <path d="m681 120 475.5 480-484.5 480v-240l249-240-238.5-240z" />
        </g>

        <path d="m262.82 325.53c.27295 28.443.54589 56.885.81884 85.328 57.099 57.182 114.2 114.36 171.3 171.54-.74308 12.035 3.5198 25.366-1.2232 36.526-58.116 56.65-116.23 113.3-174.35 169.95v120.29c103.57-103.03 207.14-206.07 310.71-309.11-102.54-102.89-205.06-205.79-307.59-308.69.10917 11.389.21835 22.777.32753 34.166z" />

        <path d="m487.82 326.14c.36753 28.229.73566 56.458 1.1034 84.686 56.946 57.504 115.06 113.89 170.72 172.64 8.5149 8.8516 5.2393 22.143 1.1034 32.262-57.741 58.539-117.34 115.27-175.96 172.95v120.73c103.36-103.36 206.72-206.73 310.09-310.09-102.48-102.46-204.89-204.98-307.48-307.32.14318 11.381.28636 22.763.42955 34.144z" />

        <path d="m712.58 307.19c.46492 34.484.97321 68.967 1.4578 103.45 56.985 56.989 113.97 113.98 170.95 170.97-.68207 11.947 3.3234 25.101-.88687 36.248-57.896 57.648-116.82 114.25-175.22 171.39-.008 40.127-.0145 80.253-.0242 120.38 104.12-102.59 207.47-206.24 310.85-309.7-102.41-102.82-204.62-205.85-307.32-308.37.0644 5.2128.12886 10.426.1933 15.638z" />
    </g>
</svg>
